<?xml version="1.0" encoding="utf-8"?>
<!-- Generator: Adobe Illustrator 18.1.1, SVG Export Plug-In . SVG Version: 6.00 Build 0)  -->
<svg version="1.1" id="Слой_1" xmlns="http://www.w3.org/2000/svg" xmlns:xlink="http://www.w3.org/1999/xlink" x="0px" y="0px"
	 viewBox="-282 411.9 18 18" enable-background="new -282 411.9 18 18" xml:space="preserve">
<title>cart</title>
<desc>Created with Sketch.</desc>
<g id="cart">
	<path fill="#999999" id="Page-1" d="M-267.6,426.3c-1,0-1.8,0.8-1.8,1.8c0,1,0.8,1.8,1.8,1.8c1,0,1.8-0.8,1.8-1.8
		C-265.8,427.1-266.6,426.3-267.6,426.3z M-282,411.9v1.8h1.8l3.2,6.8l-1.3,2.2c-0.1,0.3-0.2,0.6-0.2,0.9c0,1,0.8,1.8,1.8,1.8h10.8
		v-1.8h-10.4c-0.1,0-0.2-0.1-0.2-0.2v-0.1l0.8-1.5h6.7c0.7,0,1.3-0.4,1.5-0.9l3.2-5.9c0.2-0.2,0.2-0.3,0.2-0.4
		c0-0.5-0.4-0.9-0.9-0.9h-13.3l-0.8-1.8H-282z M-276.6,426.3c-1,0-1.8,0.8-1.8,1.8c0,1,0.8,1.8,1.8,1.8s1.8-0.8,1.8-1.8
		C-274.8,427.1-275.6,426.3-276.6,426.3z"/>
</g>
</svg>
